HIERARCHY
ROOT WRIST
{
	OFFSET 0.000000 0.000000 0.000000
	CHANNELS 6 Xposition Yposition Zposition Yrotation Xrotation Zrotation
	JOINT THUMB_CMC_FE
	{
		OFFSET 0.225143 0.117753 -0.062308
		CHANNELS 3 Yrotation Xrotation Zrotation
		JOINT THUMB_CMC_AA
		{
			OFFSET 0.212856 -0.150507 0.098851
			CHANNELS 3 Yrotation Xrotation Zrotation
			JOINT THUMB_MCP_FE
			{
				OFFSET -0.322503 -0.167445 -0.031436
				CHANNELS 3 Yrotation Xrotation Zrotation
				JOINT THUMB_IP_FE
				{
					OFFSET 0.295233 -0.236404 0.025845
					CHANNELS 3 Yrotation Xrotation Zrotation
					End Site
					{
						OFFSET 0.000000 0.000000 0.000000
					}
				}
			}
		}
	}
	JOINT INDEX_MCP
	{
		OFFSET 1.076913 0.264198 -0.014768
		CHANNELS 3 Yrotation Xrotation Zrotation
		JOINT INDEX_PIP_FE
		{
			OFFSET 0.425053 0.013289 0.013619
			CHANNELS 3 Yrotation Xrotation Zrotation
			JOINT INDEX_DIP_FE
			{
				OFFSET 0.271505 -0.024898 0.000550
				CHANNELS 3 Yrotation Xrotation Zrotation
				End Site
				{
					OFFSET 0.000000 0.000000 0.000000
				}
			}
		}
	}
	JOINT MIDDLE_MCP
	{
		OFFSET 1.072991 0.019362 0.038780
		CHANNELS 3 Yrotation Xrotation Zrotation
		JOINT MIDDLE_PIP_FE
		{
			OFFSET 0.480704 0.002618 0.028696
			CHANNELS 3 Yrotation Xrotation Zrotation
			JOINT MIDDLE_DIP_FE
			{
				OFFSET 0.307486 -0.031129 -0.000643
				CHANNELS 3 Yrotation Xrotation Zrotation
				End Site
				{
					OFFSET 0.000000 0.000000 0.000000
				}
			}
		}
	}
	JOINT RING_MCP
	{
		OFFSET 0.994992 -0.195930 -0.005938
		CHANNELS 3 Yrotation Xrotation Zrotation
		JOINT RING_PIP_FE
		{
			OFFSET 0.436995 0.003792 0.019994
			CHANNELS 3 Yrotation Xrotation Zrotation
			JOINT RING_DIP_FE
			{
				OFFSET 0.295558 -0.038341 -0.006642
				CHANNELS 3 Yrotation Xrotation Zrotation
				End Site
				{
					OFFSET 0.000000 0.000000 0.000000
				}
			}
		}
	}
	JOINT PINKY_MCP
	{
		OFFSET 0.873858 -0.393246 -0.086282
		CHANNELS 3 Yrotation Xrotation Zrotation
		JOINT PINKY_PIP_FE
		{
			OFFSET 0.343972 -0.016492 0.013445
			CHANNELS 3 Yrotation Xrotation Zrotation
			JOINT PINKY_DIP_FE
			{
				OFFSET 0.224713 -0.036309 -0.010265
				CHANNELS 3 Yrotation Xrotation Zrotation
				End Site
				{
					OFFSET 0.000000 0.000000 0.000000
				}
			}
		}
	}
}
MOTION
Frames: 17
Frame Time: 0.008333334
0.403438 0.608648 0.242087 161.864400 64.179490 -14.031980 61.461170 4.834449 93.490500 119.352900 -30.976900 14.388610 -112.863900 -65.843200 -60.062840 4.562094 -8.459839 -0.773865 -150.890500 2.908436 -177.614400 -41.978330 -86.125550 18.295710 -2.052612 1.704993 -47.506230 -153.190600 -3.231384 -172.172300 -39.240910 -88.411440 -7.131195 -6.002533 4.395447 -37.280460 -158.822200 -10.238980 -171.683800 -31.479610 -85.617800 -28.705200 0.199313 0.562922 -24.029570 -172.243100 -15.573120 -161.709200 -48.977450 -83.530550 -2.943542 5.539800 0.809176 -6.401733 
0.403350 0.607689 0.242244 161.936900 64.144030 -13.936950 61.461170 4.834451 93.479240 119.352900 -30.976900 14.337090 -112.863900 -65.843200 -60.085780 4.562088 -8.459839 -0.624390 -150.882400 2.908169 -177.588200 -41.978300 -86.125550 18.343460 -2.052612 1.704996 -47.543270 -153.050000 -3.242889 -172.145900 -39.240360 -88.411440 -6.733398 -6.002533 4.395441 -37.374790 -158.802400 -10.242770 -171.695200 -31.479580 -85.617800 -28.733760 0.199300 0.562918 -23.876560 -172.102800 -15.612370 -161.770300 -48.977600 -83.530610 -2.841705 5.539807 0.809186 -6.317108 
0.403070 0.607744 0.242572 161.851400 64.085140 -14.020810 61.461180 4.834456 93.630110 119.352900 -30.976900 14.388200 -112.863900 -65.843230 -60.294010 4.562091 -8.459839 -0.534088 -150.738400 2.903450 -177.673800 -41.978060 -86.125670 18.469000 -2.052612 1.704992 -47.516690 -153.068600 -3.241364 -172.242100 -39.240300 -88.411070 -7.060974 -6.002533 4.395443 -37.342190 -158.619700 -10.277590 -171.788400 -31.479520 -85.617800 -28.684020 0.199297 0.562933 -23.592830 -171.882700 -15.673800 -161.832400 -48.977480 -83.530580 -2.762482 5.539804 0.809191 -6.209259 
0.403431 0.606912 0.241533 161.988700 64.196590 -13.921170 61.461170 4.834460 93.561560 119.352900 -30.976900 14.424930 -112.863900 -65.843200 -60.253450 4.562065 -8.459839 -0.673462 -150.838700 2.906710 -177.569800 -41.977940 -86.125610 18.488050 -2.052612 1.704989 -47.723390 -153.177300 -3.232483 -172.127500 -39.240510 -88.411320 -7.056091 -6.002533 4.395441 -37.339690 -158.812500 -10.240840 -171.664600 -31.479490 -85.617800 -28.677250 0.199306 0.562934 -23.870820 -172.086200 -15.617070 -161.768300 -48.977540 -83.530640 -2.758087 5.539800 0.809173 -6.277618 
0.403445 0.606669 0.241436 162.012700 64.243190 -13.891390 61.461180 4.834456 93.475480 119.352900 -30.976900 14.395820 -112.863900 -65.843200 -60.183200 4.562084 -8.459808 -0.717743 -150.849600 2.907075 -177.444300 -41.978270 -86.125550 18.642700 -2.052612 1.704996 -47.677430 -153.341900 -3.219025 -172.024800 -39.240480 -88.411190 -7.317352 -6.002533 4.395450 -37.240330 -158.905200 -10.223180 -171.567600 -31.479490 -85.617740 -28.736630 0.199301 0.562930 -23.920870 -172.223800 -15.578550 -161.645500 -48.977510 -83.530550 -2.933960 5.539805 0.809166 -6.200684 
0.403139 0.606083 0.241597 161.999100 64.240510 -13.905760 61.461170 4.834470 93.410080 119.352900 -30.976900 14.424670 -112.863900 -65.843230 -59.994290 4.562085 -8.459839 -0.969574 -150.746000 2.903697 -177.442200 -41.977910 -86.125520 18.750690 -2.052643 1.704991 -47.593110 -153.350300 -3.218323 -172.002500 -39.240570 -88.411320 -7.503418 -6.002533 4.395446 -36.916530 -158.838200 -10.235930 -171.581200 -31.479520 -85.617680 -28.685180 0.199300 0.562930 -24.068300 -172.112700 -15.609650 -161.666000 -48.977540 -83.530580 -2.943451 5.539791 0.809177 -6.067139 
0.402818 0.607066 0.243019 161.822400 64.177410 -14.094240 61.461160 4.834455 93.676190 119.352900 -30.976900 14.488630 -112.863900 -65.843200 -60.363980 4.562092 -8.459839 -0.736816 -150.641100 2.900244 -177.583400 -41.978150 -86.125610 18.856100 -2.052643 1.705004 -47.493440 -153.260100 -3.225708 -172.169600 -39.239870 -88.411440 -7.688354 -6.002533 4.395426 -36.303100 -158.667800 -10.268430 -171.754200 -31.479550 -85.617680 -28.491550 0.199315 0.562925 -24.261470 -171.886500 -15.672790 -161.853500 -48.977570 -83.530640 -2.909912 5.539800 0.809191 -5.858765 
0.402682 0.607169 0.243440 161.727600 64.152350 -14.211300 61.461180 4.834455 93.603480 119.352900 -30.976900 14.518700 -112.863900 -65.843200 -60.196660 4.562090 -8.459839 -0.637543 -150.588400 2.898527 -177.679600 -41.978300 -86.125610 18.802980 -2.052643 1.705009 -47.520080 -153.168300 -3.233185 -172.221200 -39.240910 -88.411440 -7.688293 -6.002533 4.395440 -36.001680 -158.526200 -10.295350 -171.864300 -31.479550 -85.617830 -28.322810 0.199294 0.562930 -24.458740 -171.692500 -15.726680 -161.981600 -48.977600 -83.530610 -2.785553 5.539801 0.809168 -5.736206 
0.402759 0.605614 0.242135 161.858000 64.213050 -14.105380 61.461180 4.834463 93.598370 119.352900 -30.976900 14.540610 -112.863900 -65.843200 -60.403410 4.562089 -8.459869 -0.446198 -150.561200 2.897620 -177.502200 -41.978120 -86.125610 19.019950 -2.052612 1.704990 -47.525600 -153.195200 -3.231018 -172.116600 -39.240540 -88.411190 -7.676575 -6.002533 4.395441 -35.826050 -158.400800 -10.319150 -171.661500 -31.479520 -85.617830 -27.699460 0.199306 0.562927 -24.771360 -171.675800 -15.731320 -161.881300 -48.977420 -83.530580 -2.951172 5.539794 0.809181 -5.497894 
0.402732 0.605999 0.243922 161.828900 64.103140 -14.118990 61.461170 4.834468 93.656940 119.352900 -30.976900 14.470900 -112.863900 -65.843230 -60.125310 4.562097 -8.459839 -0.979523 -150.685500 2.901709 -177.663600 -41.978300 -86.125670 18.772900 -2.052643 1.704996 -47.573360 -153.257800 -3.225891 -172.248100 -39.240750 -88.411190 -7.928864 -6.002502 4.395449 -35.666410 -158.301400 -10.337980 -171.859200 -31.479430 -85.617680 -27.553710 0.199293 0.562923 -24.982760 -171.470200 -15.788270 -162.100100 -48.977570 -83.530610 -2.769287 5.539798 0.809177 -5.470184 
0.402949 0.605091 0.243286 161.905200 64.252550 -14.049840 61.461180 4.834466 93.441860 119.352900 -30.976930 14.455420 -112.863900 -65.843200 -59.855620 4.562094 -8.459869 -1.298492 -150.778300 2.904757 -177.506800 -41.978120 -86.125670 18.759090 -2.052643 1.705002 -47.533200 -153.395400 -3.214600 -172.086600 -39.240630 -88.411440 -8.144470 -6.002533 4.395443 -35.201200 -158.465000 -10.306980 -171.718800 -31.479490 -85.617680 -27.573880 0.199303 0.562926 -25.230830 -171.649800 -15.738530 -161.996700 -48.977510 -83.530550 -2.793152 5.539796 0.809176 -5.441162 
0.402863 0.605911 0.244645 161.830300 64.195790 -14.105590 61.461170 4.834468 93.571980 119.352900 -30.976900 14.429860 -112.863900 -65.843200 -59.944640 4.562072 -8.459839 -1.316864 -150.812300 2.905857 -177.590400 -41.978090 -86.125610 18.651130 -2.052612 1.705004 -47.548400 -153.448700 -3.210266 -172.134800 -39.240200 -88.411560 -8.249939 -6.002533 4.395450 -35.319670 -158.456500 -10.308590 -171.790400 -31.479370 -85.617740 -27.711360 0.199298 0.562926 -25.108550 -171.596300 -15.753360 -162.104200 -48.977570 -83.530580 -2.860474 5.539804 0.809181 -5.370789 
0.403368 0.603482 0.242096 162.078400 64.387280 -13.854520 61.461180 4.834451 93.152030 119.352900 -30.976900 14.383760 -112.863900 -65.843200 -59.707090 4.562094 -8.459839 -1.055695 -150.847900 2.907023 -177.276800 -41.978060 -86.125520 18.829320 -2.052612 1.705006 -47.393190 -153.558000 -3.201294 -171.842400 -39.240600 -88.411190 -8.270782 -6.002533 4.395447 -34.947360 -158.612600 -10.278960 -171.439800 -31.479520 -85.617800 -27.645360 0.199304 0.562923 -25.230930 -171.765100 -15.706540 -161.818100 -48.977540 -83.530580 -2.718842 5.539797 0.809190 -5.368469 
0.403655 0.604299 0.243208 162.007600 64.418090 -13.939120 61.461190 4.834460 93.269760 119.352900 -30.976900 14.410070 -112.863900 -65.843200 -59.660550 4.562086 -8.459839 -1.434021 -150.879500 2.908072 -177.403600 -41.978060 -86.125550 18.786050 -2.052612 1.704997 -47.392240 -153.594700 -3.198242 -171.987000 -39.240480 -88.411320 -8.368103 -6.002533 4.395435 -34.642520 -158.678800 -10.266360 -171.577600 -31.479640 -85.617740 -27.739470 0.199310 0.562916 -25.211460 -171.791000 -15.699340 -161.898800 -48.977600 -83.530580 -2.519531 5.539812 0.809177 -5.817688 
0.403772 0.605423 0.244583 161.935700 64.305340 -14.004000 61.461170 4.834443 93.554120 119.352900 -30.976900 14.398120 -112.863900 -65.843170 -60.073700 4.562089 -8.459839 -1.036987 -150.998500 2.911947 -177.574900 -41.978000 -86.125610 18.499090 -2.052612 1.704993 -47.377010 -153.637800 -3.194733 -172.192300 -39.240630 -88.411190 -8.574707 -6.002533 4.395439 -34.579530 -158.586300 -10.283940 -171.829000 -31.479580 -85.617800 -27.830930 0.199303 0.562916 -25.191470 -171.618800 -15.747130 -162.083700 -48.977570 -83.530580 -2.470032 5.539801 0.809171 -6.019653 
0.403954 0.604845 0.242897 161.882600 64.514070 -14.053190 61.461190 4.834448 93.170050 119.352900 -30.976900 14.462690 -112.863900 -65.843200 -59.662720 4.562096 -8.459839 -1.167847 -150.819200 2.906091 -177.325600 -41.978060 -86.125610 18.703050 -2.052612 1.704992 -47.304840 -153.540900 -3.202667 -171.926100 -39.240140 -88.411320 -8.420044 -6.002533 4.395442 -34.248470 -158.757600 -10.251340 -171.586800 -31.479610 -85.617800 -28.291530 0.199309 0.562923 -24.936340 -171.755700 -15.709170 -161.803700 -48.977420 -83.530550 -2.391052 5.539791 0.809169 -6.439331 
0.404386 0.604826 0.244834 161.999000 64.373610 -13.907560 61.461170 4.834466 93.372670 119.352900 -30.976900 14.340130 -112.863900 -65.843230 -59.799710 4.562097 -8.459839 -1.112946 -151.061100 2.913985 -177.503100 -41.977940 -86.125610 18.446620 -2.052643 1.704992 -47.363220 -153.680600 -3.191193 -172.162000 -39.240630 -88.411560 -8.665192 -6.002533 4.395439 -34.014530 -158.774100 -10.248170 -171.832000 -31.479680 -85.617740 -28.394260 0.199309 0.562931 -24.635500 -171.669700 -15.733000 -162.009800 -48.977570 -83.530580 -2.420685 5.539799 0.809181 -6.612915 
